<svg xmlns="http://www.w3.org/2000/svg" viewBox="0 0 60.31 60.31"><defs><style>.cls-1{fill:#4ba686;}</style></defs><title>Asset 13</title><g id="Layer_2" data-name="Layer 2"><g id="Layer_1-2" data-name="Layer 1"><path class="cls-1" d="M44.91,60.31H15.4A15.42,15.42,0,0,1,0,44.91V15.4A15.42,15.42,0,0,1,15.4,0H36.7a2.1,2.1,0,1,1,0,4.19H15.4A11.22,11.22,0,0,0,4.19,15.4V44.91A11.22,11.22,0,0,0,15.4,56.11H44.91a11.21,11.21,0,0,0,11.2-11.2v-24a2.1,2.1,0,0,1,4.2,0v24A15.42,15.42,0,0,1,44.91,60.31Z"/><circle class="cls-1" cx="51.44" cy="6.93" r="6.77"/></g></g></svg>