<svg xmlns="http://www.w3.org/2000/svg" viewBox="0 0 810.07 810.07"><defs><style>.cls-1{fill:#4ba686;}.cls-2{fill:#e3fcf1;}</style></defs><title>Asset 30</title><g id="Layer_2" data-name="Layer 2"><g id="Layer_1-2" data-name="Layer 1"><path class="cls-1" d="M405,810.07a1142.55,1142.55,0,0,1-241.64-26l-26.31-5.69A137.86,137.86,0,0,1,31.67,673L26,646.68a1136.78,1136.78,0,0,1,0-483.29l5.69-26.31A137.86,137.86,0,0,1,137.08,31.67L163.39,26a1136.78,1136.78,0,0,1,483.29,0L673,31.67A137.86,137.86,0,0,1,778.4,137.08l5.69,26.31a1136.78,1136.78,0,0,1,0,483.29L778.4,673A137.86,137.86,0,0,1,673,778.4l-26.31,5.69A1142.57,1142.57,0,0,1,405,810.07Zm0-788.22A1120.63,1120.63,0,0,0,168,47.34L141.7,53A115.93,115.93,0,0,0,53,141.7L47.34,168a1115,1115,0,0,0,0,474.05L53,668.37A115.94,115.94,0,0,0,141.7,757L168,762.72a1114.5,1114.5,0,0,0,474.05,0L668.37,757A116,116,0,0,0,757,668.37l5.68-26.31a1114.66,1114.66,0,0,0,0-474L757,141.7A115.94,115.94,0,0,0,668.37,53l-26.31-5.69A1120.66,1120.66,0,0,0,405,21.85Z"/><path class="cls-1" d="M577.93,616.11H235a57.3,57.3,0,0,1-57.25-57.24V351.14a61.88,61.88,0,0,1,30.68-53.32l43.32-25.18a10.92,10.92,0,1,1,11,18.89l-43.32,25.19a39.92,39.92,0,0,0-19.81,34.42V558.87A35.43,35.43,0,0,0,235,594.26h343a35.42,35.42,0,0,0,35.39-35.39V351.14a39.93,39.93,0,0,0-19.81-34.42L549.26,291a10.92,10.92,0,0,1,11-18.88l44.25,25.73a61.84,61.84,0,0,1,30.69,53.31V558.87A57.31,57.31,0,0,1,577.93,616.11Z"/><path class="cls-2" d="M437.06,461.68l117.69-68.41V232.81a27.93,27.93,0,0,0-27.93-27.93H285.14a27.92,27.92,0,0,0-27.93,27.93V393.27l113.53,65.45s15.15,11.21,35.71,11.21S437.06,461.68,437.06,461.68Z"/><path class="cls-1" d="M406.45,480.85c-21.71,0-38.22-10.58-41.6-12.91L246.28,399.58V232.81A38.91,38.91,0,0,1,285.14,194H526.82a38.91,38.91,0,0,1,38.85,38.86V399.55L443.11,470.8C439.69,473.28,427.53,480.85,406.45,480.85ZM268.13,387l109.11,63c.08.05,12.73,9.06,29.21,9.06,15.86,0,23.52-5.66,23.84-5.9l1.28-.87L543.82,387V232.81a17,17,0,0,0-17-17H285.14a17,17,0,0,0-17,17Z"/><path class="cls-1" d="M417.43,288.54H324.06a10.93,10.93,0,1,1,0-21.85h93.37a10.93,10.93,0,1,1,0,21.85Z"/><path class="cls-1" d="M485.34,357.51H324.06a10.93,10.93,0,1,1,0-21.85H485.34a10.93,10.93,0,0,1,0,21.85Z"/><path class="cls-1" d="M406.45,480.83a71.79,71.79,0,0,1-36.1-9.7L208.4,377A61.4,61.4,0,0,1,180,340.36a10.93,10.93,0,1,1,21-5.93,39.65,39.65,0,0,0,18.33,23.67l162,94.13a50,50,0,0,0,50.24,0l161.94-94.14A39.52,39.52,0,0,0,612,334a10.93,10.93,0,1,1,21.1,5.69A61.28,61.28,0,0,1,604.49,377L442.55,471.13A71.85,71.85,0,0,1,406.45,480.83Z"/></g></g></svg>