<svg xmlns="http://www.w3.org/2000/svg" viewBox="0 0 69.75 61.21"><defs><style>.cls-1{fill:#4ba686;}</style></defs><title>Asset 4</title><g id="Layer_2" data-name="Layer 2"><g id="Layer_1-2" data-name="Layer 1"><path class="cls-1" d="M34.87,61.21a2.08,2.08,0,0,1-1.48-.62L5.62,32.83a19.23,19.23,0,0,1,27.2-27.2l2,2.05,2.05-2a19.27,19.27,0,0,1,27.2,0h0a19.24,19.24,0,0,1,0,27.2L36.35,60.59A2.08,2.08,0,0,1,34.87,61.21Zm-15.65-57A15,15,0,0,0,8.59,29.87L34.87,56.15,61.15,29.87a15.05,15.05,0,0,0,0-21.27h0a15.06,15.06,0,0,0-21.27,0l-3.53,3.53a2.09,2.09,0,0,1-3,0L29.86,8.6A15,15,0,0,0,19.22,4.19Z"/></g></g></svg>