<svg xmlns="http://www.w3.org/2000/svg" viewBox="0 0 60.31 51.88"><defs><style>.cls-1{fill:#4ba686;}</style></defs><title>Asset 8</title><g id="Layer_2" data-name="Layer 2"><g id="Layer_1-2" data-name="Layer 1"><path class="cls-1" d="M53.05,51.88H44.5V31.2H56.11V30.15A25.95,25.95,0,0,0,28.89,4.23C15,4.88,4.19,16.62,4.19,31v.25H15.8V51.88H7.26A7.26,7.26,0,0,1,0,44.63V31C0,14.37,12.6.79,28.7,0A30.17,30.17,0,0,1,60.31,30.15V44.63A7.26,7.26,0,0,1,53.05,51.88ZM48.7,47.69h4.35a3.06,3.06,0,0,0,3.06-3.06V35.4H48.7ZM4.19,35.4v9.23a3.07,3.07,0,0,0,3.07,3.06h4.35V35.4Z"/></g></g></svg>