<svg xmlns="http://www.w3.org/2000/svg" viewBox="0 0 810.07 810.07"><defs><style>.cls-1{fill:#e3fcf1;}.cls-2{fill:#4ba686;}</style></defs><title>Asset 31</title><g id="Layer_2" data-name="Layer 2"><g id="Layer_1-2" data-name="Layer 1"><path class="cls-1" d="M603.75,254c-49.47-46.07-127.35-42.53-175.15,5.27L405,282.81l-23.57-23.56c-47.8-47.8-125.68-51.34-175.15-5.27a124.67,124.67,0,0,0-3.27,179.46l25.68,25.68h0L375.67,606.06a41.52,41.52,0,0,0,58.73,0L607,433.44A124.67,124.67,0,0,0,603.75,254Z"/><path class="cls-2" d="M405,629.12a52.32,52.32,0,0,1-37.09-15.33L195.32,441.17A135.6,135.6,0,0,1,198.87,246c52.75-49.15,138.14-46.65,190.33,5.53L405,267.36l15.84-15.84c52.19-52.18,137.57-54.68,190.33-5.54h0a135.6,135.6,0,0,1,3.54,195.19L442.13,613.79A52.32,52.32,0,0,1,405,629.12ZM290.17,232.48c-27.73,0-55.22,9.77-76.4,29.49a113.76,113.76,0,0,0-3,163.75L383.39,598.34a30.65,30.65,0,0,0,43.29,0L599.29,425.72a113.75,113.75,0,0,0-3-163.75h0c-44.24-41.2-116-39-160,5L405,298.27,373.75,267A118.24,118.24,0,0,0,290.17,232.48Z"/><path class="cls-2" d="M405,810.07a1142.66,1142.66,0,0,1-241.65-26l-26.31-5.68A137.86,137.86,0,0,1,31.67,673L26,646.67a1136.74,1136.74,0,0,1,0-483.28l5.69-26.31A137.85,137.85,0,0,1,137.08,31.67L163.4,26a1136.74,1136.74,0,0,1,483.28,0L673,31.67A137.85,137.85,0,0,1,778.4,137.08l5.69,26.31a1136.74,1136.74,0,0,1,0,483.28L778.4,673A137.86,137.86,0,0,1,673,778.4l-26.31,5.68A1142.56,1142.56,0,0,1,405,810.07Zm0-788.22A1120.66,1120.66,0,0,0,168,47.34L141.69,53A115.93,115.93,0,0,0,53,141.7L47.34,168a1115,1115,0,0,0,0,474.05L53,668.37A115.94,115.94,0,0,0,141.7,757L168,762.72a1114.82,1114.82,0,0,0,474.05,0L668.37,757A116,116,0,0,0,757,668.37l5.68-26.31a1114.66,1114.66,0,0,0,0-474L757,141.7A115.94,115.94,0,0,0,668.37,53l-26.31-5.69A1120.63,1120.63,0,0,0,405,21.85Z"/></g></g></svg>