<svg xmlns="http://www.w3.org/2000/svg" viewBox="0 0 62.02 62.02"><defs><style>.cls-1{fill:#4ba686;}</style></defs><title>Asset 1</title><g id="Layer_2" data-name="Layer 2"><g id="Layer_1-2" data-name="Layer 1"><path class="cls-1" d="M31,62A31,31,0,1,1,62,31,31,31,0,0,1,31,62ZM31,4.19A26.82,26.82,0,1,0,57.82,31,26.85,26.85,0,0,0,31,4.19Z"/><path class="cls-1" d="M31,46.86a2.1,2.1,0,0,1-2.1-2.09V27.86a2.1,2.1,0,0,1,4.2,0V44.77A2.1,2.1,0,0,1,31,46.86Z"/><path class="cls-1" d="M31,20.77a2.1,2.1,0,0,1-2.1-2.1V17.26a2.1,2.1,0,1,1,4.2,0v1.41A2.1,2.1,0,0,1,31,20.77Z"/></g></g></svg>