<svg xmlns="http://www.w3.org/2000/svg" viewBox="0 0 50.87 61.63"><defs><style>.cls-1{fill:#4ba686;}</style></defs><title>Asset 2</title><g id="Layer_2" data-name="Layer 2"><g id="Layer_1-2" data-name="Layer 1"><path class="cls-1" d="M21.49,16.1H15.7a2.1,2.1,0,0,1,0-4.2h5.79a2.1,2.1,0,0,1,0,4.2Z"/><path class="cls-1" d="M35.25,16.1H29.47a2.1,2.1,0,0,1,0-4.2h5.78a2.1,2.1,0,1,1,0,4.2Z"/><path class="cls-1" d="M21.49,26.24H15.7a2.1,2.1,0,0,1,0-4.19h5.79a2.1,2.1,0,0,1,0,4.19Z"/><path class="cls-1" d="M35.25,26.24H29.47a2.1,2.1,0,0,1,0-4.19h5.78a2.1,2.1,0,1,1,0,4.19Z"/><path class="cls-1" d="M21.49,36.38H15.7a2.1,2.1,0,0,1,0-4.19h5.79a2.1,2.1,0,0,1,0,4.19Z"/><path class="cls-1" d="M35.25,36.38H29.47a2.1,2.1,0,0,1,0-4.19h5.78a2.1,2.1,0,1,1,0,4.19Z"/><path class="cls-1" d="M48.77,61.63H32.15a2.1,2.1,0,0,1-2.1-2.1V48.08H20.81V59.53a2.09,2.09,0,0,1-2.09,2.1H2.1A2.1,2.1,0,0,1,0,59.53V2.1A2.1,2.1,0,0,1,2.1,0H48.77a2.1,2.1,0,0,1,2.1,2.1V59.53A2.1,2.1,0,0,1,48.77,61.63Zm-14.52-4.2H46.67V4.19H4.19V57.43H16.62V46a2.1,2.1,0,0,1,2.1-2.1H32.15a2.1,2.1,0,0,1,2.1,2.1Z"/></g></g></svg>