<svg xmlns="http://www.w3.org/2000/svg" viewBox="0 0 294.81 289.14"><defs><style>.cls-1{fill:#fff;}</style></defs><title>Asset 27</title><g id="Layer_2" data-name="Layer 2"><g id="Layer_1-2" data-name="Layer 1"><path class="cls-1" d="M46.3,182.47a11.94,11.94,0,0,0-4.66-2.66,18.54,18.54,0,0,0-5.32-.76,15.41,15.41,0,0,0-6.71,1.62A16.92,16.92,0,0,0,24,184.94a24.62,24.62,0,0,0-3.9,6.28,54.23,54.23,0,0,0-2.85,8,73,73,0,0,0-1.76,8.23,47,47,0,0,0-.62,6.89q0,6.56,3,9.55t8.65,3a16.64,16.64,0,0,0,5.85-1.09,29.63,29.63,0,0,0,6.32-3.48L43.26,231a33.09,33.09,0,0,1-9.37,4.7,35.72,35.72,0,0,1-10.5,1.48q-11.22,0-17.31-6T0,213.94a48.14,48.14,0,0,1,.71-8,61.16,61.16,0,0,1,2-8.22,56.23,56.23,0,0,1,3.14-7.8A42.86,42.86,0,0,1,10,183.14,36.12,36.12,0,0,1,22.86,172.2a34.56,34.56,0,0,1,15.55-3.7,28.57,28.57,0,0,1,9.17,1.42,15.15,15.15,0,0,1,6.42,3.8Z"/><path class="cls-1" d="M92.6,203a46.06,46.06,0,0,1-1.71,12.54,33.93,33.93,0,0,1-5.23,10.89,26.45,26.45,0,0,1-8.89,7.7,26.16,26.16,0,0,1-12.6,2.9q-8.37,0-12.83-4.42t-4.47-12.79a40.44,40.44,0,0,1,2-12.93,34.26,34.26,0,0,1,5.71-10.64A27,27,0,0,1,63.46,189a24.72,24.72,0,0,1,11.45-2.66q8.28,0,13,4.28T92.6,203Zm-13.69,0c0-2.86-.51-4.77-1.52-5.76A6.07,6.07,0,0,0,73,195.78a7.1,7.1,0,0,0-5.61,2.9,25.25,25.25,0,0,0-3.94,6.94A43.43,43.43,0,0,0,61.13,214a42.19,42.19,0,0,0-.76,7.08q0,3.52,1.61,5.13a5.92,5.92,0,0,0,4.38,1.62,7.3,7.3,0,0,0,5.42-2.52A20.5,20.5,0,0,0,75.72,219a41.1,41.1,0,0,0,2.38-8.08A42.68,42.68,0,0,0,78.91,203Z"/><path class="cls-1" d="M139.75,199.58a13.86,13.86,0,0,1-1.57,6.47,15.3,15.3,0,0,1-4.66,5.32,23.92,23.92,0,0,1-7.7,3.61,38.55,38.55,0,0,1-10.69,1.34,25.48,25.48,0,0,1-3.71-.24,11.23,11.23,0,0,1-2.09-.43,15.25,15.25,0,0,0-.33,2.19c-.1.95-.15,1.68-.15,2.18q0,4.18,2.09,6a9.06,9.06,0,0,0,6.09,1.81,18.09,18.09,0,0,0,6.7-1.33,31.68,31.68,0,0,0,6.8-3.8l3.23,8a39.18,39.18,0,0,1-9.79,5,31.28,31.28,0,0,1-10,1.62q-8.76,0-13.6-4.47t-4.85-13.41a35.85,35.85,0,0,1,.81-7.56,42.59,42.59,0,0,1,2.23-7.22,39.5,39.5,0,0,1,3.43-6.51,31,31,0,0,1,4.47-5.42,21.3,21.3,0,0,1,7.74-5,26.7,26.7,0,0,1,9-1.48,27.72,27.72,0,0,1,6.65.76,15.37,15.37,0,0,1,5.23,2.33,10.69,10.69,0,0,1,3.42,4.14A13.8,13.8,0,0,1,139.75,199.58Zm-12.83,1a5.59,5.59,0,0,0-1.14-3.61c-.77-1-2.1-1.43-4-1.43a8.93,8.93,0,0,0-6.27,2.47q-2.67,2.48-4.09,8.84a11.63,11.63,0,0,0,1.38.29,12.67,12.67,0,0,0,2.23.19,23.55,23.55,0,0,0,4.18-.38,15,15,0,0,0,3.81-1.19,8.33,8.33,0,0,0,2.8-2.09A4.62,4.62,0,0,0,126.92,200.63Z"/><path class="cls-1" d="M209,196.35a30.18,30.18,0,0,1-.76,6.37l-7,33.28H188.81l6.84-32.14a21.28,21.28,0,0,0,.57-4.18,2.72,2.72,0,0,0-.71-2.19,4,4,0,0,0-2.43-.57,8.87,8.87,0,0,0-5.18,2,20.36,20.36,0,0,0-4.89,5.32L176.26,236H164.18l6.75-31.66a22.37,22.37,0,0,0,.67-4.76,2.58,2.58,0,0,0-.71-2.09,3.78,3.78,0,0,0-2.33-.57,8.74,8.74,0,0,0-5.09,1.9,24.63,24.63,0,0,0-5.18,5.42L151.54,236H139.08l7.13-33.28a21.87,21.87,0,0,0,.43-2.85c.1-1,.15-2,.15-3a36.72,36.72,0,0,0-.19-3.75,12.11,12.11,0,0,0-.58-2.81l11.79-4.66a18.36,18.36,0,0,1,.91,3.52,15.63,15.63,0,0,1,.23,4.28,26.3,26.3,0,0,1,7.56-5.42,19.2,19.2,0,0,1,8-1.81,10.32,10.32,0,0,1,6.13,1.72,7.2,7.2,0,0,1,2.8,5.51,25,25,0,0,1,7.89-5.61,20.2,20.2,0,0,1,7.8-1.62,10.64,10.64,0,0,1,6.94,2.33Q209,190.94,209,196.35Z"/><path class="cls-1" d="M246.32,199.68A11.22,11.22,0,0,0,242.8,197a8.59,8.59,0,0,0-3.7-.9,7.84,7.84,0,0,0-6,2.85,18.48,18.48,0,0,0-2.57,4,34.63,34.63,0,0,0-2.14,5.47,55.87,55.87,0,0,0-1.47,6.13,33.54,33.54,0,0,0-.57,6q0,3.8,1.61,5.51a5.52,5.52,0,0,0,4.19,1.71,11.47,11.47,0,0,0,5.27-1.33,31.68,31.68,0,0,0,5.37-3.51l4.28,7.89a35.46,35.46,0,0,1-8.22,4.75,25.59,25.59,0,0,1-9.65,1.71q-8.18,0-12.45-4.42t-4.28-12.31a37.9,37.9,0,0,1,1-8.79,44.86,44.86,0,0,1,2.66-8,36.44,36.44,0,0,1,3.9-6.8,30,30,0,0,1,4.8-5.23,27.21,27.21,0,0,1,7.08-4.28,23.69,23.69,0,0,1,8.89-1.52,18.35,18.35,0,0,1,6.8,1.38,16.05,16.05,0,0,1,6.13,4.42Z"/><path class="cls-1" d="M294.81,203a46.06,46.06,0,0,1-1.71,12.54,33.72,33.72,0,0,1-5.23,10.89,26.45,26.45,0,0,1-8.89,7.7,26.16,26.16,0,0,1-12.6,2.9q-8.37,0-12.83-4.42t-4.47-12.79a40.44,40.44,0,0,1,2-12.93,34.47,34.47,0,0,1,5.71-10.64,27,27,0,0,1,8.84-7.23,24.72,24.72,0,0,1,11.45-2.66q8.28,0,13,4.28T294.81,203Zm-13.69,0c0-2.86-.51-4.77-1.52-5.76a6.07,6.07,0,0,0-4.38-1.47,7.1,7.1,0,0,0-5.61,2.9,25.25,25.25,0,0,0-3.94,6.94,44.16,44.16,0,0,0-2.33,8.37,42.19,42.19,0,0,0-.76,7.08q0,3.52,1.62,5.13a5.88,5.88,0,0,0,4.37,1.62A7.28,7.28,0,0,0,274,225.3a20.5,20.5,0,0,0,3.94-6.32,41.1,41.1,0,0,0,2.38-8.08A42.68,42.68,0,0,0,281.12,203Z"/><path class="cls-1" d="M172.5,90.23A5.54,5.54,0,1,0,178,95.76,5.54,5.54,0,0,0,172.5,90.23Z"/><path class="cls-1" d="M183.29,64.49a3.61,3.61,0,0,0-3.35-2.29H162.1L160,71.47h25Z"/><path class="cls-1" d="M129.43,90.23A5.54,5.54,0,1,0,135,95.76,5.54,5.54,0,0,0,129.43,90.23Z"/><path class="cls-1" d="M186.81,76.47H158.87L155.13,93h7.21a10.52,10.52,0,0,1,20.32,0h2.05a3,3,0,0,0,2.91-2.29l1.71-7.2a5.21,5.21,0,0,0-.63-4Z"/><path class="cls-1" d="M214.57,30.3l-1-4.81A25.74,25.74,0,0,0,193.85,5.81l-4.82-1a208.47,208.47,0,0,0-88.68,0l-4.81,1A25.72,25.72,0,0,0,75.86,25.49l-1,4.81a208.47,208.47,0,0,0,0,88.68l1,4.82a25.74,25.74,0,0,0,19.68,19.68l4.81,1a209.56,209.56,0,0,0,44.34,4.77A209.49,209.49,0,0,0,189,144.52l4.82-1a25.75,25.75,0,0,0,19.68-19.68l1-4.82A208.47,208.47,0,0,0,214.57,30.3ZM102.81,57.21h32.35v5H102.81Zm-9,16.93v-5h31.74v5ZM104,81.08h15.6v5H104Zm90.15,3.6-1.71,7.19A8,8,0,0,1,184.71,98h-1.92a10.53,10.53,0,0,1-20.58,0H139.72a10.53,10.53,0,0,1-20.58,0H111V93h8.32a10.52,10.52,0,0,1,20.31,0H150l8.19-36.18A5.37,5.37,0,0,0,153,50.28H116.47v-5H153A10.33,10.33,0,0,1,163.19,57.2h16.75a8.62,8.62,0,0,1,8.1,5.72l.07.24L190.54,73,193,77A10.17,10.17,0,0,1,194.19,84.68Z"/><path class="cls-1" d="M104.68,269.18a17.86,17.86,0,0,1-.78,5.64,10.21,10.21,0,0,1-2.07,3.7,12,12,0,0,1-1.67,1.52,8.21,8.21,0,0,1-3.8,1.47,17.8,17.8,0,0,1-2.41.15H87.42v-25h5q1.42,0,2.52.06a11.74,11.74,0,0,1,2,.25,8.88,8.88,0,0,1,1.76.59,10.4,10.4,0,0,1,1.75,1,9,9,0,0,1,3.19,4.23A17.83,17.83,0,0,1,104.68,269.18Zm-3.25.36a21.29,21.29,0,0,0-.45-4.74,8.33,8.33,0,0,0-1.7-3.43A7.58,7.58,0,0,0,98,260.18a5.11,5.11,0,0,0-1.33-.69,7.32,7.32,0,0,0-1.52-.33,16.08,16.08,0,0,0-1.79-.09h-3v20.11h3c.66,0,1.29,0,1.9-.08a7.06,7.06,0,0,0,1.74-.34,5.22,5.22,0,0,0,1.51-.8,4.92,4.92,0,0,0,1.2-1.41A12,12,0,0,0,101,273.3,16.35,16.35,0,0,0,101.43,269.54Z"/><path class="cls-1" d="M111.25,273.05v.43a12.74,12.74,0,0,0,.18,2.27,4.56,4.56,0,0,0,.66,1.71,4.48,4.48,0,0,0,2,1.7,6.59,6.59,0,0,0,7-1.19l1.09,1.83a8.39,8.39,0,0,1-2.79,1.68,9.58,9.58,0,0,1-3.34.58,7.29,7.29,0,0,1-5.93-2.57,10.82,10.82,0,0,1-2.14-7.1,12.54,12.54,0,0,1,.52-3.89,8.67,8.67,0,0,1,1.68-3,6.82,6.82,0,0,1,5.43-2.52,6.56,6.56,0,0,1,4.93,2,7.15,7.15,0,0,1,1,1.28,5.59,5.59,0,0,1,.64,1.53,11.92,11.92,0,0,1,.35,2c.07.77.11,1.71.11,2.8v.41Zm8.32-2.16a12.84,12.84,0,0,0-.24-2.44,5,5,0,0,0-.6-1.61,3.45,3.45,0,0,0-1.35-1.17,4.27,4.27,0,0,0-1.93-.43c-2.66,0-4,1.88-4.2,5.65Z"/><path class="cls-1" d="M131.47,281.62a4.68,4.68,0,0,1-.9.33,4.62,4.62,0,0,1-.93.07,3,3,0,0,1-2.15-.76,2.54,2.54,0,0,1-.66-1,4.88,4.88,0,0,1-.22-1.58V259.4a14.79,14.79,0,0,0-.18-2.58c-.12-.64-.21-1-.25-1.15l2.84-.54c0,.14.14.59.28,1.33a17.84,17.84,0,0,1,.2,3V278a3.35,3.35,0,0,0,.2,1.44.83.83,0,0,0,.82.38,1.83,1.83,0,0,0,.36-.07Z"/><path class="cls-1" d="M138.73,257.86a2.24,2.24,0,0,1-3.81,1.59,2.08,2.08,0,0,1-.64-1.55,2.22,2.22,0,0,1,.64-1.61,2.22,2.22,0,0,1,3.81,1.57ZM135,281.66v-18.1l3-.48v18.58Z"/><path class="cls-1" d="M149.46,281.84h-2.81l-6.53-18.21L143,263l4.23,12.52c.22.65.41,1.29.57,1.91s.26,1,.31,1.19h.07c.05-.15.14-.51.27-1.09a19.16,19.16,0,0,1,.6-2l4.16-12.08h3Z"/><path class="cls-1" d="M160.66,273.05v.43a11.81,11.81,0,0,0,.19,2.27,4.73,4.73,0,0,0,.65,1.71,4.51,4.51,0,0,0,2,1.7,6.57,6.57,0,0,0,7-1.19l1.1,1.83a8.54,8.54,0,0,1-2.8,1.68,9.54,9.54,0,0,1-3.34.58,7.31,7.31,0,0,1-5.93-2.57,10.82,10.82,0,0,1-2.13-7.1,12.88,12.88,0,0,1,.51-3.89,8.67,8.67,0,0,1,1.68-3A6.84,6.84,0,0,1,165,263a6.52,6.52,0,0,1,4.92,2,7.72,7.72,0,0,1,1,1.28,5.92,5.92,0,0,1,.64,1.53,12,12,0,0,1,.34,2c.08.77.11,1.71.11,2.8v.41Zm8.32-2.16a13.84,13.84,0,0,0-.23-2.44,5.52,5.52,0,0,0-.6-1.61,3.49,3.49,0,0,0-1.36-1.17,4.24,4.24,0,0,0-1.93-.43q-4,0-4.2,5.65Z"/><path class="cls-1" d="M183.76,266.22a2.28,2.28,0,0,0-.8-.14,4.16,4.16,0,0,0-3,1.31,3.63,3.63,0,0,0-.84,1.19,5.06,5.06,0,0,0-.22,1.69v11.39H176v-14a10,10,0,0,0-.28-2.73c-.18-.63-.29-1-.34-1.13l2.84-.77a8.34,8.34,0,0,1,.39,1.08,5,5,0,0,1,.2,1.88,7.82,7.82,0,0,1,2.35-2.21,5.28,5.28,0,0,1,2.76-.82,2.51,2.51,0,0,1,.62.07l.36.11Z"/><path class="cls-1" d="M193.44,282.32a22.16,22.16,0,0,1-1,2.5,10.18,10.18,0,0,1-1.22,2,6.44,6.44,0,0,1-3.69,2.34l-.84-1.93a5.76,5.76,0,0,0,1.5-.66,4.39,4.39,0,0,0,1.09-1,7,7,0,0,0,.86-1.57,21.83,21.83,0,0,0,.75-2.34l-1.17.18c-.05-.29-.15-.71-.29-1.25l-.48-1.77c-.17-.64-.35-1.26-.54-1.88s-.37-1.17-.52-1.63L184,263.89l2.81-.95,3.72,11.78c.12.39.24.82.37,1.28s.23.92.33,1.35.18.83.25,1.17l.15.73h.07c.2-.63.38-1.27.57-1.92s.37-1.28.56-1.91l3.58-11.94h3.25Z"/><rect class="cls-1" x="47.23" y="272.16" width="23.17" height="2"/><rect class="cls-1" x="218.99" y="272.16" width="23.17" height="2"/></g></g></svg>