<svg xmlns="http://www.w3.org/2000/svg" viewBox="0 0 62.02 53.07"><defs><style>.cls-1{fill:#4ba686;}</style></defs><title>Asset 19</title><g id="Layer_2" data-name="Layer 2"><g id="Layer_1-2" data-name="Layer 1"><path class="cls-1" d="M4.77,53.07A2.1,2.1,0,0,1,2.67,51V2.1a2.1,2.1,0,0,1,4.2,0V51A2.1,2.1,0,0,1,4.77,53.07Z"/><path class="cls-1" d="M31,53.07a2.1,2.1,0,0,1-2.1-2.1V2.1a2.1,2.1,0,1,1,4.19,0V51A2.09,2.09,0,0,1,31,53.07Z"/><path class="cls-1" d="M57.24,53.07A2.1,2.1,0,0,1,55.15,51V2.1a2.1,2.1,0,1,1,4.19,0V51A2.1,2.1,0,0,1,57.24,53.07Z"/><rect class="cls-1" y="35.48" width="9.65" height="7.93" rx="3.97"/><rect class="cls-1" x="26.18" y="11.11" width="9.65" height="7.93" rx="3.97"/><rect class="cls-1" x="52.37" y="34.27" width="9.65" height="7.93" rx="3.97"/></g></g></svg>