<svg xmlns="http://www.w3.org/2000/svg" viewBox="0 0 66.14 54.02"><defs><style>.cls-1{fill:#4ba686;}</style></defs><title>Asset 10</title><g id="Layer_2" data-name="Layer 2"><g id="Layer_1-2" data-name="Layer 1"><path class="cls-1" d="M54.81,54H11.33A11.35,11.35,0,0,1,0,42.69V11.33A11.34,11.34,0,0,1,11.33,0H54.81A11.35,11.35,0,0,1,66.14,11.33V42.69A11.35,11.35,0,0,1,54.81,54ZM11.33,4.19a7.16,7.16,0,0,0-7.14,7.14V42.69a7.15,7.15,0,0,0,7.14,7.13H54.81a7.14,7.14,0,0,0,7.13-7.13V11.33a7.15,7.15,0,0,0-7.13-7.14Z"/><path class="cls-1" d="M33.07,32a2.08,2.08,0,0,1-1.39-.53L3.91,6.87A2.1,2.1,0,0,1,6.69,3.73L33.07,27.11,58.83,4.35a2.1,2.1,0,1,1,2.78,3.14l-27.15,24A2.12,2.12,0,0,1,33.07,32Z"/></g></g></svg>