<svg xmlns="http://www.w3.org/2000/svg" viewBox="0 0 80.84 62.56"><defs><style>.cls-1{fill:#4ba686;}</style></defs><title>Asset 15</title><g id="Layer_2" data-name="Layer 2"><g id="Layer_1-2" data-name="Layer 1"><path class="cls-1" d="M46.45,62.56H9.5A9.51,9.51,0,0,1,0,53.06V9.5A9.51,9.51,0,0,1,9.5,0h37A9.51,9.51,0,0,1,56,9.5V18a2.1,2.1,0,1,1-4.19,0V9.5a5.31,5.31,0,0,0-5.31-5.31H9.5A5.32,5.32,0,0,0,4.19,9.5V53.06A5.32,5.32,0,0,0,9.5,58.37h37a5.31,5.31,0,0,0,5.31-5.31V45.28a2.1,2.1,0,1,1,4.19,0v7.78A9.51,9.51,0,0,1,46.45,62.56Z"/><path class="cls-1" d="M73.11,33.38H29.91a2.1,2.1,0,0,1,0-4.2h43.2a2.1,2.1,0,0,1,0,4.2Z"/><path class="cls-1" d="M64.78,47.83a2.1,2.1,0,0,1-1.55-3.51l11.92-13-11.92-13a2.1,2.1,0,1,1,3.09-2.84L80.84,31.28,66.32,47.15A2.09,2.09,0,0,1,64.78,47.83Z"/></g></g></svg>