<svg xmlns="http://www.w3.org/2000/svg" viewBox="0 0 66.14 60.79"><defs><style>.cls-1{fill:#4ba686;}</style></defs><title>Asset 3</title><g id="Layer_2" data-name="Layer 2"><g id="Layer_1-2" data-name="Layer 1"><path class="cls-1" d="M57.23,60.79H8.91A8.92,8.92,0,0,1,0,51.88v-3.7a18.27,18.27,0,0,1,10.27-16.5l2.26-1.11a2.1,2.1,0,1,1,1.85,3.76l-2.26,1.11A14.12,14.12,0,0,0,4.19,48.18v3.7a4.72,4.72,0,0,0,4.72,4.71H57.23a4.71,4.71,0,0,0,4.71-4.71v-3.7A14.12,14.12,0,0,0,54,35.44l-2.25-1.11a2.1,2.1,0,1,1,1.85-3.76l2.26,1.11a18.27,18.27,0,0,1,10.27,16.5v3.7A8.92,8.92,0,0,1,57.23,60.79Z"/><path class="cls-1" d="M33.07,32.15A16.08,16.08,0,1,1,49.14,16.08,16.09,16.09,0,0,1,33.07,32.15Zm0-28A11.89,11.89,0,1,0,45,16.08,11.9,11.9,0,0,0,33.07,4.19Z"/></g></g></svg>