<svg viewBox="0 0 810.07 810.07" xmlns="http://www.w3.org/2000/svg"><path d="m405 810.07a1142.55 1142.55 0 0 1 -241.64-26l-26.31-5.69a137.86 137.86 0 0 1 -105.38-105.38l-5.67-26.32a1136.78 1136.78 0 0 1 0-483.29l5.69-26.31a137.86 137.86 0 0 1 105.39-105.41l26.31-5.67a1136.78 1136.78 0 0 1 483.29 0l26.32 5.67a137.86 137.86 0 0 1 105.4 105.41l5.69 26.31a1136.78 1136.78 0 0 1 0 483.29l-5.69 26.32a137.86 137.86 0 0 1 -105.4 105.4l-26.31 5.69a1142.57 1142.57 0 0 1 -241.69 25.98zm0-788.22a1120.63 1120.63 0 0 0 -237 25.49l-26.3 5.66a115.93 115.93 0 0 0 -88.7 88.7l-5.66 26.3a1115 1115 0 0 0 0 474.05l5.66 26.32a115.94 115.94 0 0 0 88.7 88.63l26.3 5.72a1114.5 1114.5 0 0 0 474.05 0l26.32-5.72a116 116 0 0 0 88.63-88.63l5.68-26.31a1114.66 1114.66 0 0 0 0-474l-5.68-26.36a115.94 115.94 0 0 0 -88.63-88.7l-26.31-5.69a1120.66 1120.66 0 0 0 -237.06-25.46z" fill="#4ba686"/><path d="m577.93 616.11h-342.93a57.3 57.3 0 0 1 -57.25-57.24v-207.73a61.88 61.88 0 0 1 30.68-53.32l43.32-25.18a10.92 10.92 0 1 1 11 18.89l-43.32 25.19a39.92 39.92 0 0 0 -19.81 34.42v207.73a35.43 35.43 0 0 0 35.38 35.39h343a35.42 35.42 0 0 0 35.39-35.39v-207.73a39.93 39.93 0 0 0 -19.81-34.42l-44.32-25.72a10.92 10.92 0 0 1 11-18.88l44.25 25.73a61.84 61.84 0 0 1 30.69 53.31v207.71a57.31 57.31 0 0 1 -57.27 57.24z" fill="#4ba686"/><path d="m437.06 461.68 117.69-68.41v-160.46a27.93 27.93 0 0 0 -27.93-27.93h-241.68a27.92 27.92 0 0 0 -27.93 27.93v160.46l113.53 65.45s15.15 11.21 35.71 11.21 30.61-8.25 30.61-8.25z" fill="#e3fcf1"/><g fill="#4ba686"><path d="m406.45 480.85c-21.71 0-38.22-10.58-41.6-12.91l-118.57-68.36v-166.77a38.91 38.91 0 0 1 38.86-38.81h241.68a38.91 38.91 0 0 1 38.85 38.86v166.69l-122.56 71.25c-3.42 2.48-15.58 10.05-36.66 10.05zm-138.32-93.85 109.11 63c.08.05 12.73 9.06 29.21 9.06 15.86 0 23.52-5.66 23.84-5.9l1.28-.87 112.25-65.29v-154.19a17 17 0 0 0 -17-17h-241.68a17 17 0 0 0 -17 17z"/><path d="m417.43 288.54h-93.37a10.93 10.93 0 1 1 0-21.85h93.37a10.93 10.93 0 1 1 0 21.85z"/><path d="m485.34 357.51h-161.28a10.93 10.93 0 1 1 0-21.85h161.28a10.93 10.93 0 0 1 0 21.85z"/><path d="m406.45 480.83a71.79 71.79 0 0 1 -36.1-9.7l-161.95-94.13a61.4 61.4 0 0 1 -28.4-36.64 10.93 10.93 0 1 1 21-5.93 39.65 39.65 0 0 0 18.33 23.67l162 94.13a50 50 0 0 0 50.24 0l161.94-94.14a39.52 39.52 0 0 0 18.49-24.09 10.93 10.93 0 1 1 21.1 5.69 61.28 61.28 0 0 1 -28.61 37.31l-161.94 94.13a71.85 71.85 0 0 1 -36.1 9.7z"/></g></svg>