<svg xmlns="http://www.w3.org/2000/svg" viewBox="0 0 62.02 62.02"><defs><style>.cls-1{fill:#4ba686;}</style></defs><title>Asset 7</title><g id="Layer_2" data-name="Layer 2"><g id="Layer_1-2" data-name="Layer 1"><path class="cls-1" d="M31,62A31,31,0,1,1,62,31,31,31,0,0,1,31,62ZM31,4.19A26.82,26.82,0,1,0,57.82,31,26.85,26.85,0,0,0,31,4.19Z"/><path class="cls-1" d="M19.71,23.35A8.17,8.17,0,0,1,21.09,19a10.59,10.59,0,0,1,4-3.65,12.59,12.59,0,0,1,6.17-1.45,13.14,13.14,0,0,1,5.79,1.21,9.37,9.37,0,0,1,3.87,3.29,8.06,8.06,0,0,1,1.37,4.52,7,7,0,0,1-.78,3.37,10.48,10.48,0,0,1-1.85,2.49c-.72.7-2,1.88-3.86,3.54q-.76.7-1.23,1.23a5.23,5.23,0,0,0-.69,1,4.69,4.69,0,0,0-.35.89c-.08.29-.21.81-.37,1.54a2.51,2.51,0,0,1-2.69,2.35,2.77,2.77,0,0,1-2-.76,3.07,3.07,0,0,1-.8-2.29A8.48,8.48,0,0,1,28.3,33a8.34,8.34,0,0,1,1.56-2.44A33.55,33.55,0,0,1,32.48,28c1-.85,1.66-1.48,2.09-1.91a6.31,6.31,0,0,0,1.08-1.44A3.42,3.42,0,0,0,36.09,23a4,4,0,0,0-1.34-3.05,4.9,4.9,0,0,0-3.47-1.24,4.81,4.81,0,0,0-3.66,1.25,10.05,10.05,0,0,0-2,3.7q-.76,2.55-2.91,2.55a2.85,2.85,0,0,1-2.14-.89A2.72,2.72,0,0,1,19.71,23.35Zm11,24.77a3.59,3.59,0,0,1-2.41-.89,3.16,3.16,0,0,1-1-2.5,3.21,3.21,0,0,1,1-2.4,3.33,3.33,0,0,1,2.44-1,3.22,3.22,0,0,1,2.39,1,3.27,3.27,0,0,1,1,2.4,3.14,3.14,0,0,1-1,2.48A3.4,3.4,0,0,1,30.74,48.12Z"/></g></g></svg>