<svg xmlns="http://www.w3.org/2000/svg" viewBox="0 0 66.14 60.79"><defs><style>.cls-1{fill:#4ba686;}</style></defs><title>Asset 6</title><g id="Layer_2" data-name="Layer 2"><g id="Layer_1-2" data-name="Layer 1"><path class="cls-1" d="M55.49,60.79H40.63a2.1,2.1,0,0,1-2.1-2.1V39.09H27.6v19.6a2.1,2.1,0,0,1-2.09,2.1H10.65A10.66,10.66,0,0,1,0,50.14V21.45a2.08,2.08,0,0,1,1-1.78L32,.32a2.07,2.07,0,0,1,2.22,0l31,19.35a2.1,2.1,0,0,1,1,1.78V50.14A10.67,10.67,0,0,1,55.49,60.79Zm-12.76-4.2H55.49a6.45,6.45,0,0,0,6.45-6.45V22.61l-28.87-18-28.88,18V50.14a6.46,6.46,0,0,0,6.46,6.45H23.41V37a2.1,2.1,0,0,1,2.1-2.09H40.63A2.1,2.1,0,0,1,42.73,37Z"/></g></g></svg>