<svg xmlns="http://www.w3.org/2000/svg" viewBox="0 0 44.62 58.1"><defs><style>.cls-1{fill:#4ba686;}</style></defs><title>Asset 24</title><g id="Layer_2" data-name="Layer 2"><g id="Layer_1-2" data-name="Layer 1"><path class="cls-1" d="M22.31,58.1a3.75,3.75,0,0,1-2.51-1C19,56.42,0,39.36,0,22.46a22.31,22.31,0,1,1,44.62,0c0,16.55-17.77,32.87-19.79,34.68A3.83,3.83,0,0,1,22.31,58.1Zm0-53.91A18.22,18.22,0,0,0,4.19,22.46c0,14,15.85,29.2,18.12,31.3,2.35-2.15,18.12-17.14,18.12-31.3A18.22,18.22,0,0,0,22.31,4.19Z"/><circle class="cls-1" cx="22.31" cy="22.31" r="6.74"/></g></g></svg>