<svg xmlns="http://www.w3.org/2000/svg" viewBox="0 0 61.13 66.89"><defs><style>.cls-1{fill:#4ba686;}</style></defs><title>Asset 11</title><g id="Layer_2" data-name="Layer 2"><g id="Layer_1-2" data-name="Layer 1"><path class="cls-1" d="M49.93,66.89H11.19A11.2,11.2,0,0,1,0,55.7V29.15a8.48,8.48,0,0,1,8.47-8.48H52.65a8.49,8.49,0,0,1,8.48,8.48V55.7A11.21,11.21,0,0,1,49.93,66.89Zm-41.46-42a4.28,4.28,0,0,0-4.28,4.28V55.7a7,7,0,0,0,7,7H49.93a7,7,0,0,0,7-7V29.15a4.28,4.28,0,0,0-4.28-4.28Z"/><path class="cls-1" d="M44.13,24.87H17a2.39,2.39,0,0,1-2.38-2.38V15.94a15.95,15.95,0,0,1,31.89,0v6.55A2.39,2.39,0,0,1,44.13,24.87Zm-25.32-4.2h23.5V15.94a11.75,11.75,0,0,0-23.5,0Z"/><path class="cls-1" d="M30.56,50.61a2.09,2.09,0,0,1-2.09-2.1V39.05a2.1,2.1,0,0,1,4.19,0v9.46A2.1,2.1,0,0,1,30.56,50.61Z"/></g></g></svg>