<svg xmlns="http://www.w3.org/2000/svg" viewBox="0 0 53.52 64.54"><defs><style>.cls-1{fill:#4ba686;}</style></defs><title>orders</title><g id="Layer_2" data-name="Layer 2"><g id="Layer_1-2" data-name="Layer 1"><path class="cls-1" d="M44.37,64.54H9.15A9.16,9.16,0,0,1,0,55.39V13.88A9.17,9.17,0,0,1,9.15,4.72H44.37a9.16,9.16,0,0,1,9.15,9.16V55.39A9.15,9.15,0,0,1,44.37,64.54ZM9.15,8.92a5,5,0,0,0-5,5V55.39a5,5,0,0,0,5,5H44.37a5,5,0,0,0,5-5V13.88a5,5,0,0,0-5-5Z"/><path class="cls-1" d="M17.06,13.64a2.1,2.1,0,0,1-2.1-2.1V2.1a2.1,2.1,0,0,1,4.2,0v9.44A2.1,2.1,0,0,1,17.06,13.64Z"/><path class="cls-1" d="M36.46,13.64a2.1,2.1,0,0,1-2.09-2.1V2.1a2.1,2.1,0,1,1,4.19,0v9.44A2.1,2.1,0,0,1,36.46,13.64Z"/><path class="cls-1" d="M38,30.43H15.49a2.1,2.1,0,1,1,0-4.19H38a2.1,2.1,0,1,1,0,4.19Z"/><path class="cls-1" d="M38,47.23H15.49a2.1,2.1,0,0,1,0-4.2H38a2.1,2.1,0,0,1,0,4.2Z"/></g></g></svg>