<svg xmlns="http://www.w3.org/2000/svg" viewBox="0 0 810.07 810.07"><defs><style>.cls-1{fill:#4ba686;}.cls-2{fill:#e3fcf1;}</style></defs><title>Asset 29</title><g id="Layer_2" data-name="Layer 2"><g id="Layer_1-2" data-name="Layer 1"><path class="cls-1" d="M405,810.07a1142.66,1142.66,0,0,1-241.65-26l-26.31-5.68A137.86,137.86,0,0,1,31.67,673L26,646.67a1136.74,1136.74,0,0,1,0-483.28l5.69-26.31A137.85,137.85,0,0,1,137.08,31.67L163.4,26a1136.74,1136.74,0,0,1,483.28,0L673,31.67A137.85,137.85,0,0,1,778.4,137.08l5.69,26.31a1136.74,1136.74,0,0,1,0,483.28L778.4,673A137.86,137.86,0,0,1,673,778.4l-26.31,5.68A1142.56,1142.56,0,0,1,405,810.07Zm0-788.22A1120.66,1120.66,0,0,0,168,47.34L141.69,53A115.93,115.93,0,0,0,53,141.7L47.34,168a1115,1115,0,0,0,0,474.05L53,668.37A115.94,115.94,0,0,0,141.7,757L168,762.72a1114.82,1114.82,0,0,0,474.05,0L668.37,757A116,116,0,0,0,757,668.37l5.68-26.31a1114.66,1114.66,0,0,0,0-474L757,141.7A115.94,115.94,0,0,0,668.37,53l-26.31-5.69A1120.63,1120.63,0,0,0,405,21.85Z"/><path class="cls-2" d="M538.79,608.6H271.28A35.58,35.58,0,0,1,236.05,578L205.36,361.18a9.35,9.35,0,0,1,9.26-10.66H595.45a9.35,9.35,0,0,1,9.26,10.66L574,578A35.58,35.58,0,0,1,538.79,608.6Z"/><path class="cls-1" d="M538.79,619.53H271.28a46.71,46.71,0,0,1-46-40l-30.7-216.83a20.28,20.28,0,0,1,20.07-23.12H595.45a20.29,20.29,0,0,1,20.08,23.12L584.84,579.54A46.74,46.74,0,0,1,538.79,619.53ZM216.43,361.44l30.44,215a24.76,24.76,0,0,0,24.41,21.2H538.79a24.77,24.77,0,0,0,24.41-21.2l30.44-215Z"/><path class="cls-1" d="M518.08,340H496.23V292.66a91.2,91.2,0,1,0-182.39,0V340H292V292.66a113,113,0,1,1,226.09,0Z"/></g></g></svg>