<svg xmlns="http://www.w3.org/2000/svg" viewBox="0 0 62.47 64.08"><defs><style>.cls-1{fill:#4ba686;}</style></defs><title>Asset 16</title><g id="Layer_2" data-name="Layer 2"><g id="Layer_1-2" data-name="Layer 1"><path class="cls-1" d="M50.4,64.08H12.07A7.22,7.22,0,0,1,5,57.9L0,22.92H62.47l-4.95,35A7.22,7.22,0,0,1,50.4,64.08Zm-45.57-37L9.1,57.31a3,3,0,0,0,3,2.58H50.4a3,3,0,0,0,3-2.58l4.27-30.2Z"/><path class="cls-1" d="M45.86,25.61a2.1,2.1,0,0,1-2.09-2.09V16.73a12.54,12.54,0,1,0-25.07,0v6.79a2.1,2.1,0,0,1-4.19,0V16.73a16.73,16.73,0,1,1,33.45,0v6.79A2.1,2.1,0,0,1,45.86,25.61Z"/></g></g></svg>