<svg xmlns="http://www.w3.org/2000/svg" viewBox="0 0 66.14 60.79"><defs><style>.cls-1{fill:#4ba686;}</style></defs><title>Asset 9</title><g id="Layer_2" data-name="Layer 2"><g id="Layer_1-2" data-name="Layer 1"><path class="cls-1" d="M57.23,60.79a2.1,2.1,0,1,1,0-4.2,4.71,4.71,0,0,0,4.71-4.71v-3.7A14.12,14.12,0,0,0,54,35.44L50.48,33.7a2.1,2.1,0,0,1,1.85-3.76l3.54,1.73A18.3,18.3,0,0,1,66.14,48.18v3.7A8.92,8.92,0,0,1,57.23,60.79Z"/><path class="cls-1" d="M32,60.79H8.91A8.92,8.92,0,0,1,0,51.88v-3.7A18.3,18.3,0,0,1,10.27,31.67l2.94-1.44A2.1,2.1,0,1,1,15.06,34l-2.94,1.45A14.12,14.12,0,0,0,4.19,48.18v3.7a4.72,4.72,0,0,0,4.72,4.71H32a2.1,2.1,0,1,1,0,4.2Z"/><path class="cls-1" d="M51.41,51.86H37.9a2.1,2.1,0,1,1,0-4.19H51.41a2.1,2.1,0,1,1,0,4.19Z"/><path class="cls-1" d="M44.65,58.62a2.09,2.09,0,0,1-2.09-2.1V43a2.1,2.1,0,1,1,4.19,0V56.52A2.1,2.1,0,0,1,44.65,58.62Z"/><path class="cls-1" d="M33.07,32.15A16.08,16.08,0,1,1,49.14,16.08,16.09,16.09,0,0,1,33.07,32.15Zm0-28A11.88,11.88,0,1,0,45,16.08,11.9,11.9,0,0,0,33.07,4.19Z"/></g></g></svg>