<svg xmlns="http://www.w3.org/2000/svg" viewBox="0 0 63.01 65.42"><defs><style>.cls-1{fill:#4ba686;}</style></defs><title>Asset 17</title><g id="Layer_2" data-name="Layer 2"><g id="Layer_1-2" data-name="Layer 1"><path class="cls-1" d="M31.51,65.42a8.13,8.13,0,0,1-4.81-1.57l-3.25-2.36a3.94,3.94,0,0,0-2.34-.76h-4a8.16,8.16,0,0,1-7.78-5.65L8.07,51.25a4,4,0,0,0-1.44-2L3.37,46.9a8.17,8.17,0,0,1-3-9.14l1.25-3.82a4,4,0,0,0,0-2.46L.4,27.66a8.19,8.19,0,0,1,3-9.15l3.26-2.36a3.91,3.91,0,0,0,1.44-2l1.24-3.82a8.16,8.16,0,0,1,7.78-5.65h4a3.94,3.94,0,0,0,2.34-.76L26.7,1.57a8.15,8.15,0,0,1,9.61,0l3.25,2.36a4,4,0,0,0,2.34.76h4a8.16,8.16,0,0,1,7.78,5.65l1.24,3.82a3.87,3.87,0,0,0,1.45,2l3.25,2.36a8.16,8.16,0,0,1,3,9.14l-1.24,3.83a3.84,3.84,0,0,0,0,2.46l1.24,3.82a8.15,8.15,0,0,1-3,9.14l-3.25,2.36a3.94,3.94,0,0,0-1.45,2L53.7,55.08a8.16,8.16,0,0,1-7.78,5.65h-4a4,4,0,0,0-2.34.76l-3.25,2.36A8.13,8.13,0,0,1,31.51,65.42ZM17.09,8.88a4,4,0,0,0-3.79,2.76l-1.24,3.82a8.13,8.13,0,0,1-3,4.09L5.84,21.91a4,4,0,0,0-1.45,4.45l1.24,3.82a8.1,8.1,0,0,1,0,5.06L4.39,39.06a4,4,0,0,0,1.45,4.45l3.25,2.36a8.13,8.13,0,0,1,3,4.09l1.24,3.82a4,4,0,0,0,3.79,2.75h4a8.1,8.1,0,0,1,4.8,1.56l3.26,2.37a4,4,0,0,0,4.68,0l3.25-2.37a8.12,8.12,0,0,1,4.8-1.56h4a4,4,0,0,0,3.79-2.75L51,50a8.19,8.19,0,0,1,3-4.09l3.25-2.36a4,4,0,0,0,1.45-4.45l-1.24-3.82a8.1,8.1,0,0,1,0-5.06l1.24-3.82a4,4,0,0,0-1.45-4.45l-3.25-2.36a8.19,8.19,0,0,1-3-4.09l-1.24-3.82a4,4,0,0,0-3.79-2.76h-4a8.14,8.14,0,0,1-4.8-1.56L33.85,5h0a4,4,0,0,0-4.67,0L25.91,7.32a8.1,8.1,0,0,1-4.8,1.56Z"/><path class="cls-1" d="M27.89,42.52a2.1,2.1,0,0,1-1.49-.61l-8.19-8.2a2.09,2.09,0,0,1,3-3l6.72,6.71,14-13.95a2.1,2.1,0,0,1,3,3L29.37,41.91A2.09,2.09,0,0,1,27.89,42.52Z"/></g></g></svg>