<svg xmlns="http://www.w3.org/2000/svg" viewBox="0 0 61.27 62.86"><defs><style>.cls-1{fill:#4ba686;}</style></defs><title>Asset 14</title><g id="Layer_2" data-name="Layer 2"><g id="Layer_1-2" data-name="Layer 1"><path class="cls-1" d="M36.5,62.86H24.76a3.58,3.58,0,0,1-3.52-3l-.94-6.69A24.36,24.36,0,0,1,17,51.25l-6.22,2.51a3.59,3.59,0,0,1-4.39-1.52L.48,42.07a3.55,3.55,0,0,1,.87-4.57l5.28-4.14c-.07-.71-.1-1.33-.1-1.93a19.07,19.07,0,0,1,.1-1.93L1.35,25.36a3.57,3.57,0,0,1-.87-4.58L6.35,10.62a3.56,3.56,0,0,1,4.34-1.54L17,11.61A23.79,23.79,0,0,1,20.3,9.66L21.23,3a3.59,3.59,0,0,1,3.53-3H36.5A3.6,3.6,0,0,1,40,2.93l1,6.73a26.06,26.06,0,0,1,3.33,1.95L50.54,9.1a3.56,3.56,0,0,1,4.38,1.52l5.87,10.17a3.54,3.54,0,0,1-.87,4.57L54.63,29.5c.06.7.09,1.33.09,1.93s0,1.23-.09,1.93l5.31,4.16a3.54,3.54,0,0,1,.83,4.55L54.91,52.23a3.54,3.54,0,0,1-4.34,1.54L44.3,51.25A24,24,0,0,1,41,53.19L40,59.82A3.58,3.58,0,0,1,36.5,62.86Zm-11.19-4.2H36l1.19-8.38,1.1-.46a19.66,19.66,0,0,0,4.48-2.61l1-.74,7.89,3.18,5.31-9.21L50.19,35.2,50.34,34a20.74,20.74,0,0,0,.19-2.6,20.61,20.61,0,0,0-.19-2.6l-.15-1.18,6.7-5.24L51.57,13.2l-7.88,3.18-.95-.73A20,20,0,0,0,38.25,13l-1.1-.46L36,4.19H25.31l-1.19,8.39L23,13a19.45,19.45,0,0,0-4.48,2.61l-.95.74L9.7,13.2,4.39,22.41l6.67,5.24-.14,1.18a20.87,20.87,0,0,0-.19,2.6,21,21,0,0,0,.19,2.6l.14,1.17L4.39,40.44,9.7,49.65l7.88-3.18,1,.73A20.4,20.4,0,0,0,23,49.82l1.1.46ZM57.15,40h0Zm-53-17.09h0ZM30.63,43.79A12.36,12.36,0,1,1,43,31.43,12.37,12.37,0,0,1,30.63,43.79Zm0-20.53a8.17,8.17,0,1,0,8.17,8.17A8.17,8.17,0,0,0,30.63,23.26Z"/></g></g></svg>